<?xml version="1.0" encoding="UTF-8" standalone="no"?>
<!-- Created with Inkscape (http://www.inkscape.org/) -->

<svg
   width="146.26025mm"
   height="76.841194mm"
   viewBox="0 0 146.26025 76.841194"
   version="1.1"
   id="svg304"
   xmlns:inkscape="http://www.inkscape.org/namespaces/inkscape"
   xmlns:sodipodi="http://sodipodi.sourceforge.net/DTD/sodipodi-0.dtd"
   xmlns="http://www.w3.org/2000/svg"
   xmlns:svg="http://www.w3.org/2000/svg">
  <sodipodi:namedview
     id="namedview306"
     pagecolor="#505050"
     bordercolor="#eeeeee"
     borderopacity="1"
     inkscape:showpageshadow="0"
     inkscape:pageopacity="0"
     inkscape:pagecheckerboard="0"
     inkscape:deskcolor="#505050"
     inkscape:document-units="mm"
     showgrid="false" />
  <defs
     id="defs301" />
  <g
     inkscape:label="Warstwa 1"
     inkscape:groupmode="layer"
     id="layer1"
     transform="translate(-31.547299,-16.934244)">
    <path
       d="m 173.5479,62.764423 c 0,1.05812 -1.06389,1.91935 -2.371,1.91935 H 38.178496 c -1.30738,0 -2.371137,-0.86123 -2.371137,-1.91935 v -40.46149 c 0,-1.05812 1.063757,-1.91935 2.371137,-1.91935 h 6.694922 v 15.00504 c 0,3.62202 3.641153,6.5698 8.116572,6.5698 h 103.37528 c 4.47569,0 8.11712,-2.94778 8.11712,-6.5698 v -15.00504 h 6.69451 c 1.30711,0 2.371,0.86123 2.371,1.91935 z m -13.32653,-42.38084 v 15.00504 c 0,1.72137 -1.72967,3.12156 -3.8561,3.12156 H 52.98999 c -2.126428,0 -3.856513,-1.40019 -3.856513,-3.12156 v -15.00504 z m 10.95553,-3.44934 H 38.178496 c -3.656506,0 -6.631197,2.40882 -6.631197,5.36869 v 40.46149 c 0,2.95987 2.974691,5.36759 6.631197,5.36759 H 171.1769 c 3.65637,0 6.63065,-2.40772 6.63065,-5.36759 v -40.46149 c 0,-2.95987 -2.97428,-5.36869 -6.63065,-5.36869"
       style="fill:currentColor;fill-opacity:1;fill-rule:nonzero;stroke:none;stroke-width:0.012225"
       id="path16" />
    <path
       d="M 162.35188,56.194633 H 47.00338 c -1.176262,0 -2.129962,0.77214 -2.129962,1.72466 0,0.95253 0.9537,1.72467 2.129962,1.72467 h 115.3485 c 1.17667,0 2.13051,-0.77214 2.13051,-1.72467 0,-0.95252 -0.95384,-1.72466 -2.13051,-1.72466"
       style="fill:currentColor;fill-opacity:1;fill-rule:nonzero;stroke:none;stroke-width:0.012225"
       id="path18" />
    <path
       d="m 78.385522,74.366333 c 0,-0.95253 -0.953564,-1.72467 -2.129962,-1.72467 -1.17639,0 -2.129954,0.77214 -2.129954,1.72467 0,1.09001 -0.273243,1.56188 -0.651245,2.21633 -0.469037,0.81064 -1.052752,1.82036 -1.052752,3.67812 0,1.85665 0.583715,2.86638 1.052752,3.67811 0.378002,0.65335 0.651245,1.12632 0.651245,2.21633 0,1.09112 -0.273243,1.56298 -0.651245,2.21743 -0.469037,0.81064 -1.052752,1.82036 -1.052752,3.67812 0,0.95253 0.953564,1.72467 2.129962,1.72467 1.176397,0 2.129955,-0.77214 2.129955,-1.72467 0,-1.09002 0.273242,-1.56298 0.651244,-2.21633 0.469173,-0.81174 1.052752,-1.82146 1.052752,-3.67922 0,-1.85666 -0.583851,-2.86638 -1.052752,-3.67812 -0.378002,-0.65334 -0.651244,-1.12631 -0.651244,-2.21632 0,-1.09002 0.273242,-1.56298 0.651244,-2.21633 0.468901,-0.81174 1.052752,-1.82146 1.052752,-3.67812"
       style="fill:currentColor;fill-opacity:1;fill-rule:nonzero;stroke:none;stroke-width:0.012225"
       id="path20" />
    <path
       d="m 107.65986,74.366333 c 0,-0.95253 -0.95384,-1.72467 -2.13051,-1.72467 -1.17666,0 -2.12914,0.77214 -2.12914,1.72467 0,1.09001 -0.27447,1.56188 -0.6522,2.21633 -0.46876,0.81064 -1.05302,1.82036 -1.05302,3.67812 0,1.85665 0.58426,2.86638 1.05302,3.67811 0.37773,0.65335 0.6522,1.12632 0.6522,2.21633 0,1.09112 -0.27447,1.56298 -0.6522,2.21743 -0.46876,0.81064 -1.05302,1.82036 -1.05302,3.67812 0,0.95253 0.95383,1.72467 2.1305,1.72467 1.17667,0 2.13051,-0.77214 2.13051,-1.72467 0,-1.09002 0.27311,-1.56298 0.65083,-2.21633 0.46877,-0.81174 1.05303,-1.82146 1.05303,-3.67922 0,-1.85666 -0.58426,-2.86638 -1.05303,-3.67812 -0.37772,-0.65334 -0.65083,-1.12631 -0.65083,-2.21632 0,-1.09002 0.27311,-1.56298 0.65083,-2.21633 0.46877,-0.81174 1.05303,-1.82146 1.05303,-3.67812"
       style="fill:currentColor;fill-opacity:1;fill-rule:nonzero;stroke:none;stroke-width:0.012225"
       id="path22" />
    <path
       d="m 136.93392,74.366333 c 0,-0.95253 -0.95383,-1.72467 -2.1305,-1.72467 -1.17667,0 -2.13051,0.77214 -2.13051,1.72467 0,1.09001 -0.27311,1.56188 -0.65083,2.21633 -0.46877,0.81064 -1.05303,1.82036 -1.05303,3.67812 0,1.85665 0.58426,2.86638 1.05303,3.67811 0.37772,0.65335 0.65083,1.12632 0.65083,2.21633 0,1.09112 -0.27311,1.56298 -0.65083,2.21743 -0.46877,0.81064 -1.05303,1.82036 -1.05303,3.67812 0,0.95253 0.95384,1.72467 2.13051,1.72467 1.17666,0 2.1305,-0.77214 2.1305,-1.72467 0,-1.09002 0.27311,-1.56298 0.65084,-2.21633 0.46876,-0.81174 1.05302,-1.82146 1.05302,-3.67922 0,-1.85666 -0.58426,-2.86638 -1.05302,-3.67812 -0.37773,-0.65334 -0.65084,-1.12631 -0.65084,-2.21632 0,-1.09002 0.27311,-1.56298 0.65084,-2.21633 0.46876,-0.81174 1.05302,-1.82146 1.05302,-3.67812"
       style="fill:currentColor;fill-opacity:1;fill-rule:nonzero;stroke:none;stroke-width:0.012225"
       id="path24" />
  </g>
</svg>
