<?xml version="1.0" encoding="UTF-8" standalone="no"?>
<!-- Created with Inkscape (http://www.inkscape.org/) -->

<svg
   width="160.207mm"
   height="90.471779mm"
   viewBox="0 0 160.207 90.471779"
   version="1.1"
   id="svg304"
   xmlns:inkscape="http://www.inkscape.org/namespaces/inkscape"
   xmlns:sodipodi="http://sodipodi.sourceforge.net/DTD/sodipodi-0.dtd"
   xmlns="http://www.w3.org/2000/svg"
   xmlns:svg="http://www.w3.org/2000/svg">
  <sodipodi:namedview
     id="namedview306"
     pagecolor="#505050"
     bordercolor="#eeeeee"
     borderopacity="1"
     inkscape:showpageshadow="0"
     inkscape:pageopacity="0"
     inkscape:pagecheckerboard="0"
     inkscape:deskcolor="#505050"
     inkscape:document-units="mm"
     showgrid="false" />
  <defs
     id="defs301" />
  <g
     inkscape:label="Warstwa 1"
     inkscape:groupmode="layer"
     id="layer1"
     transform="translate(-31.670632,-124.96376)">
    <g
       id="g614"
       transform="matrix(0.00458712,0,0,-0.00458712,-2.8763446,284.89004)">
      <path
         d="M 26086.7,15141.2 H 22564.5 V 17405 c 0,301.6 244.3,546.4 545.9,546.4 301.6,0 545.9,-244.8 545.9,-546.4 v -1171.1 h 1338.2 v 2264.9 c 0,301.6 244.3,546.4 546.3,546.4 301,0 545.9,-244.8 545.9,-546.4 z m 4815.8,0 H 27379.7 V 17405 c 0,301.6 244.3,546.4 546.5,546.4 301,0 545.8,-244.8 545.8,-546.4 v -1171.1 h 1337.7 v 2264.9 c 0,301.6 244.9,546.4 546.4,546.4 301.5,0 546.4,-244.8 546.4,-546.4 z m 4815.2,0 H 32194.9 V 17405 c 0,301.6 244.8,546.4 546.5,546.4 301.5,0 546.3,-244.8 546.3,-546.4 v -1171.1 h 1337.7 v 2264.9 c 0,301.6 244.9,546.4 545.9,546.4 302.1,0 546.4,-244.8 546.4,-546.4 z m 4815.2,0 H 37010.7 V 17405 c 0,301.6 244.9,546.4 545.9,546.4 302,0 546.3,-244.8 546.3,-546.4 v -1171.1 h 1338.2 v 2264.9 c 0,301.6 244.4,546.4 545.9,546.4 301.6,0 545.9,-244.8 545.9,-546.4 v -3357.6"
         style="fill:currentColor;fill-opacity:1;fill-rule:nonzero;stroke:none"
         id="path616" />
      <path
         d="m 17392,33771.4 c -4835.3,0 -8769,-3933.2 -8769,-8768.5 v -6679.2 c 0,-1152.5 937.84,-2089.8 2090.3,-2089.8 H 17392 c 4835.3,0 8768.9,3933.7 8768.9,8769 0,4835.3 -3933.6,8768.5 -8768.9,8768.5 z m 0,-18630.2 h -6678.7 c -1755.1,0 -3182,1427.9 -3182,3182.5 v 6679.2 c 0,5437.4 4423.4,9861.3 9860.7,9861.3 5437.4,0 9861.8,-4423.9 9861.8,-9861.3 0,-5437.9 -4424.4,-9861.7 -9861.8,-9861.7"
         style="fill:currentColor;fill-opacity:1;fill-rule:nonzero;stroke:none"
         id="path618" />
      <path
         d="m 10489.6,18472.3 c -171.6,0 -311.2,-139.6 -311.2,-311.1 0,-171.6 139.6,-310.6 311.2,-310.6 171.6,0 311.1,139 311.1,310.6 0,171.5 -139.5,311.1 -311.1,311.1 z m 0,-1714.5 c -774.27,0 -1403.98,629.7 -1403.98,1403.4 0,774.1 629.71,1403.8 1403.98,1403.8 773.7,0 1402.8,-629.7 1402.8,-1403.8 0,-773.7 -629.1,-1403.4 -1402.8,-1403.4"
         style="fill:currentColor;fill-opacity:1;fill-rule:nonzero;stroke:none"
         id="path620" />
      <path
         d="M 42456.7,15141.2 H 17392 v 1092.7 H 41364.8 V 19861 H 25475.6 v 1092.9 h 16981.1 v -5812.7"
         style="fill:currentColor;fill-opacity:1;fill-rule:nonzero;stroke:none"
         id="path622" />
      <path
         d="m 17392.5,30686.7 c -3134.4,0 -5684.2,-2549.4 -5684.2,-5683.8 0,-3134.3 2549.8,-5683.7 5684.2,-5683.7 3133.9,0 5683.8,2549.4 5683.8,5683.7 0,3134.4 -2549.9,5683.8 -5683.8,5683.8 z m 0,-12460.4 c -3736.5,0 -6776.5,3040.1 -6776.5,6776.6 0,3736.5 3040,6776.6 6776.5,6776.6 3736.5,0 6776.6,-3040.1 6776.6,-6776.6 0,-3736.5 -3040.1,-6776.6 -6776.6,-6776.6"
         style="fill:currentColor;fill-opacity:1;fill-rule:nonzero;stroke:none"
         id="path624" />
      <path
         d="m 17392.5,29083.6 c -2250.8,0 -4081.2,-1830.4 -4081.2,-4080.7 0,-2250.3 1830.4,-4081.2 4081.2,-4081.2 2249.9,0 4081.3,1830.9 4081.3,4081.2 0,2250.3 -1831.4,4080.7 -4081.3,4080.7 z m 0,-9254.6 c -2852.8,0 -5173.9,2321 -5173.9,5173.9 0,2852.4 2321.1,5173.5 5173.9,5173.5 2852.4,0 5173,-2321.1 5173,-5173.5 0,-2852.9 -2320.6,-5173.9 -5173,-5173.9"
         style="fill:currentColor;fill-opacity:1;fill-rule:nonzero;stroke:none"
         id="path626" />
    </g>
  </g>
</svg>
