<?xml version="1.0" encoding="UTF-8" standalone="no"?>
<!-- Created with Inkscape (http://www.inkscape.org/) -->

<svg
   width="101.96116mm"
   height="96.51976mm"
   viewBox="0 0 101.96116 96.51976"
   version="1.1"
   id="svg304"
   xmlns:inkscape="http://www.inkscape.org/namespaces/inkscape"
   xmlns:sodipodi="http://sodipodi.sourceforge.net/DTD/sodipodi-0.dtd"
   xmlns="http://www.w3.org/2000/svg"
   xmlns:svg="http://www.w3.org/2000/svg">
  <sodipodi:namedview
     id="namedview306"
     pagecolor="#505050"
     bordercolor="#eeeeee"
     borderopacity="1"
     inkscape:showpageshadow="0"
     inkscape:pageopacity="0"
     inkscape:pagecheckerboard="0"
     inkscape:deskcolor="#505050"
     inkscape:document-units="mm"
     showgrid="false" />
  <defs
     id="defs301" />
  <g
     inkscape:label="Warstwa 1"
     inkscape:groupmode="layer"
     id="layer1"
     transform="translate(-57.824029,-238.44978)">
    <path
       d="m 149.22646,309.89188 c -1.96748,-1.09223 -4.24035,-1.35177 -6.4035,-0.7328 -2.16234,0.61899 -3.95461,2.0428 -5.04519,4.00946 l -1.37305,2.47347 c -2.25241,4.05939 -0.78274,9.19546 3.27748,11.44787 l 6.81534,3.78265 c -5.39806,1.82747 -11.51664,0.4888 -15.65219,-3.64756 -5.93189,-5.93189 -5.93189,-15.58423 0,-21.51613 2.87384,-2.87383 6.69498,-4.45649 10.75847,-4.45649 4.06431,0 7.88464,1.58266 10.75848,4.45649 2.28433,2.28434 3.74991,5.16063 4.2559,8.28501 z m -40.5068,-15.28867 7.51823,-7.51865 14.67624,14.6705 c -0.76226,0.55675 -1.48851,1.17328 -2.16889,1.85367 -1.97075,1.97074 -3.39129,4.2862 -4.26655,6.75311 z m -15.307162,1.31165 39.447822,-39.44774 4.89781,4.89782 -39.447985,39.44773 -2.44883,-2.4489 z m 3.366804,13.86321 -6.166221,-6.16606 -4.810774,-4.81102 c -2.34e-4,0 -6.87e-4,0 -8.38e-4,-9.2e-4 l -1.354555,-1.35423 3.148205,-3.14813 2.667183,2.6667 c 1.78e-4,0 2.33e-4,9.2e-4 4.67e-4,9.2e-4 l 6.997513,6.9971 c 1.64e-4,9.2e-4 4.67e-4,9.2e-4 4.67e-4,9.2e-4 l 2.666853,2.6667 z m -4.505287,-0.3054 -22.391546,22.39139 -7.521682,-7.52111 22.391546,-22.39221 z m -6.092383,-37.40739 c 0.951972,-0.64601 1.85081,-1.38453 2.682088,-2.21556 1.770406,-1.77097 3.127076,-3.84325 4.02976,-6.09975 l 13.99854,13.99257 c 0.0852,0.0852 0.17867,0.15638 0.277,0.21615 l -7.546905,7.54649 z m -20.934719,-4.31567 c -2.284012,-2.28435 -3.749508,-5.16064 -4.255503,-8.28502 l 7.391989,4.10198 c 1.966821,1.0914 4.240846,1.35176 6.403023,0.73279 2.162328,-0.61898 3.954192,-2.0428 5.045583,-4.00945 l 1.372399,-2.47348 c 2.252815,-4.05939 0.782827,-9.19546 -3.277072,-11.44867 l -6.815344,-3.78185 c 5.397749,-1.82747 11.516083,-0.4888 15.651784,3.64674 2.87368,2.87385 4.456258,6.69498 4.456258,10.75848 0,4.06431 -1.582578,7.88463 -4.456258,10.75848 -2.87368,2.87383 -6.694402,4.45649 -10.758395,4.45649 -4.06398,0 -7.884715,-1.58266 -10.758464,-4.45649 z m 81.773807,-25.98737 4.61534,4.61534 -5.56673,12.15608 -5.73048,1.21177 -0.41266,-0.41265 -5.4693,-5.4693 1.05211,-5.96138 z m 7.44169,61.84649 c -3.43469,-3.43468 -8.0009,-5.32602 -12.85859,-5.32602 -2.84845,0 -5.59538,0.655 -8.07458,1.88642 l -15.19124,-15.18468 22.25875,-22.25793 6.81862,-1.44182 c 0.46014,-0.0974 0.84741,-0.40693 1.0431,-0.83432 l 6.3077,-13.77477 c 0.2579,-0.56413 0.13838,-1.22896 -0.30049,-1.66782 l -6.12266,-6.12349 c -0.4626,-0.46177 -1.17246,-0.5674 -1.74886,-0.25955 l -13.1206,6.9971 c -0.40282,0.21535 -0.68448,0.60261 -0.76307,1.05212 l -1.23059,6.97417 -22.27176,22.27102 c -0.0602,-0.0982 -0.13133,-0.19158 -0.21657,-0.27673 L 93.850769,260.5077 c 0.223449,-1.14626 0.339061,-2.32282 0.339061,-3.51657 0,-4.85688 -1.8915,-9.4239 -5.32611,-12.85859 -5.752183,-5.75177 -14.713797,-6.97663 -21.793114,-2.97863 -0.467998,0.26445 -0.756617,0.76062 -0.754652,1.29854 0.0014,0.5371 0.294429,1.03164 0.764391,1.29282 l 9.40597,5.21958 c 1.273093,0.70659 2.194844,1.86595 2.595544,3.26602 0.400631,1.40008 0.2322,2.87138 -0.474303,4.14456 l -1.372317,2.47346 c -0.706352,1.27318 -1.866278,2.19427 -3.266028,2.59546 -1.399819,0.40037 -2.871702,0.23171 -4.144795,-0.47488 l -9.794307,-5.43491 c -0.457681,-0.25382 -1.015424,-0.24808 -1.467707,0.0155 -0.452448,0.26364 -0.732618,0.74589 -0.737536,1.26907 -0.04643,4.92401 1.843681,9.55163 5.322168,13.03053 3.434693,3.43469 8.001069,5.32603 12.858343,5.32603 2.623622,0 5.160385,-0.55677 7.481734,-1.60559 l 14.035056,14.03514 -6.209617,6.21027 -1.827718,-1.82828 c -1.042116,-1.04146 -2.7376,-1.04146 -3.779716,0 l -3.568218,3.56896 c -0.504855,0.50436 -0.782745,1.17574 -0.782745,1.8897 0,0.71395 0.277972,1.38534 0.782827,1.88969 l 0.515405,0.51581 -22.622853,22.62228 c -1.030082,1.03081 -1.030082,2.70763 1.79e-4,3.73763 l 7.984021,7.9837 c 0.499113,0.49944 1.162797,0.77454 1.868737,0.77454 0.706091,0 1.369693,-0.2751 1.868723,-0.77371 l 22.622853,-22.6231 0.515241,0.515 c 0.504841,0.50517 1.176149,0.78354 1.890016,0.78354 0.714127,0 1.385422,-0.27837 1.889947,-0.78273 l 3.568131,-3.56813 c 0,0 0,0 1e-4,0 0.50483,-0.50517 0.78288,-1.17657 0.78288,-1.89051 0,-0.71397 -0.27805,-1.38534 -0.78288,-1.8897 l -1.8274,-1.82746 6.20963,-6.20947 17.01812,17.01788 c -0.83677,5.52334 0.86378,11.36026 5.10823,15.60388 3.49118,3.49201 8.16465,5.31537 12.88233,5.31537 3.05477,0 6.1284,-0.76472 8.91054,-2.33591 0.46751,-0.26445 0.75653,-0.76144 0.75407,-1.29855 -0.001,-0.53792 -0.29393,-1.03246 -0.7639,-1.29282 l -9.40588,-5.21958 c -2.62821,-1.4582 -3.57961,-4.78318 -2.1214,-7.41057 l 1.37223,-2.47346 c 0.70659,-1.27318 1.86677,-2.19509 3.26602,-2.59546 1.40008,-0.4012 2.87221,-0.23253 4.14455,0.47405 l 9.7948,5.43491 c 0.45768,0.25463 1.01526,0.2489 1.46722,-0.0147 0.45277,-0.26364 0.73278,-0.74589 0.7377,-1.26989 0.0467,-4.92401 -1.84303,-9.5508 -5.32193,-13.0297"
       style="fill:currentColor;"
       id="path703" />
  </g>
</svg>
